{
  "accessors": [
    {
      "bufferView": 2,
      "componentType": 5126,
      "count": 41,
      "max": [
        0.04279400035738945,
        -0.5764949917793274,
        0.10507400333881378
      ],
      "min": [
        -0.040355000644922256,
        -0.7057740092277527,
        0.028255000710487366
      ],
      "type": "VEC3"
    },
    {
      "bufferView": 1,
      "componentType": 5126,
      "count": 41,
      "max": [
        0.0,
        0.0
      ],
      "min": [
        0.0,
        0.0
      ],
      "type": "VEC2"
    },
    {
      "bufferView": 0,
      "componentType": 5125,
      "count": 64,
      "type": "SCALAR"
    },
    {
      "bufferView": 2,
      "byteOffset": 492,
      "componentType": 5126,
      "count": 5916,
      "max": [
        0.0829169973731041,
        0.8261680006980896,
        0.34248000383377075
      ],
      "min": [
        -0.08047699928283691,
        -0.8826109766960144,
        -0.3963499963283539
      ],
      "type": "VEC3"
    },
    {
      "bufferView": 2,
      "byteOffset": 71484,
      "componentType": 5126,
      "count": 5916,
      "max": [
        1.0,
        1.0,
        1.0
      ],
      "min": [
        -1.0,
        -1.0,
        -1.0
      ],
      "type": "VEC3"
    },
    {
      "bufferView": 3,
      "componentType": 5126,
      "count": 5916,
      "max": [
        1.0,
        1.0,
        1.0,
        1.0
      ],
      "min": [
        -1.0,
        -1.0,
        -1.0,
        1.0
      ],
      "type": "VEC4"
    },
    {
      "bufferView": 1,
      "byteOffset": 328,
      "componentType": 5126,
      "count": 5916,
      "max": [
        0.9998049736022949,
        0.9997010231018066
      ],
      "min": [
        0.00036100001307204366,
        0.00035799999022856355
      ],
      "type": "VEC2"
    },
    {
      "bufferView": 0,
      "byteOffset": 256,
      "componentType": 5125,
      "count": 15708,
      "type": "SCALAR"
    },
    {
      "bufferView": 2,
      "byteOffset": 142476,
      "componentType": 5126,
      "count": 5986,
      "max": [
        0.08796299993991852,
        0.8849120140075684,
        0.3806520104408264
      ],
      "min": [
        -0.08552300184965134,
        -0.7155320048332214,
        -0.3474690020084381
      ],
      "type": "VEC3"
    },
    {
      "bufferView": 2,
      "byteOffset": 214308,
      "componentType": 5126,
      "count": 5986,
      "max": [
        1.0,
        1.0,
        1.0
      ],
      "min": [
        -1.0,
        -1.0,
        -1.0
      ],
      "type": "VEC3"
    },
    {
      "bufferView": 3,
      "byteOffset": 94656,
      "componentType": 5126,
      "count": 5986,
      "max": [
        1.0,
        1.0,
        1.0,
        1.0
      ],
      "min": [
        -1.0,
        -1.0,
        -1.0,
        1.0
      ],
      "type": "VEC4"
    },
    {
      "bufferView": 1,
      "byteOffset": 47656,
      "componentType": 5126,
      "count": 5986,
      "max": [
        0.9997529983520508,
        0.9995930194854736
      ],
      "min": [
        0.0,
        0.0
      ],
      "type": "VEC2"
    },
    {
      "bufferView": 0,
      "byteOffset": 63088,
      "componentType": 5125,
      "count": 15039,
      "type": "SCALAR"
    }
  ],
  "asset": {
    "extras": {
      "author": "ViniRock (https://sketchfab.com/ViniciusRocha)",
      "license": "CC-BY-4.0 (http://creativecommons.org/licenses/by/4.0/)",
      "source": "https://sketchfab.com/3d-models/jawbone-scifi-submachine-gun-game-model-study-055812a749ec4bf38e96f53923b51024",
      "title": "Jawbone SciFi submachine gun  - game model study"
    },
    "generator": "Sketchfab-12.67.0",
    "version": "2.0"
  },
  "bufferViews": [
    {
      "buffer": 0,
      "byteLength": 123244,
      "name": "floatBufferViews",
      "target": 34963
    },
    {
      "buffer": 0,
      "byteLength": 95544,
      "byteOffset": 123244,
      "byteStride": 8,
      "name": "floatBufferViews",
      "target": 34962
    },
    {
      "buffer": 0,
      "byteLength": 286140,
      "byteOffset": 218788,
      "byteStride": 12,
      "name": "floatBufferViews",
      "target": 34962
    },
    {
      "buffer": 0,
      "byteLength": 190432,
      "byteOffset": 504928,
      "byteStride": 16,
      "name": "floatBufferViews",
      "target": 34962
    }
  ],
  "buffers": [
    {
      "byteLength": 695360,
      "uri": "scene.bin"
    }
  ],
  "images": [
    {
      "uri": "textures/Canon-metal_baseColor.png"
    },
    {
      "uri": "textures/Canon-metal_metallicRoughness.png"
    },
    {
      "uri": "textures/Canon-metal_emissive.png"
    },
    {
      "uri": "textures/Canon-metal_normal.png"
    },
    {
      "uri": "textures/Paint_baseColor.png"
    },
    {
      "uri": "textures/Paint_metallicRoughness.png"
    },
    {
      "uri": "textures/Paint_emissive.png"
    },
    {
      "uri": "textures/Paint_normal.png"
    }
  ],
  "materials": [
    {
      "emissiveFactor": [
        1.0,
        1.0,
        1.0
      ],
      "emissiveTexture": {
        "index": 2
      },
      "name": "Canon-metal",
      "normalTexture": {
        "index": 3
      },
      "occlusionTexture": {
        "index": 1
      },
      "pbrMetallicRoughness": {
        "baseColorTexture": {
          "index": 0
        },
        "metallicRoughnessTexture": {
          "index": 1
        }
      }
    },
    {
      "emissiveFactor": [
        1.0,
        1.0,
        1.0
      ],
      "emissiveTexture": {
        "index": 6
      },
      "name": "Paint",
      "normalTexture": {
        "index": 7
      },
      "occlusionTexture": {
        "index": 5
      },
      "pbrMetallicRoughness": {
        "baseColorTexture": {
          "index": 4
        },
        "metallicRoughnessTexture": {
          "index": 5
        }
      }
    }
  ],
  "meshes": [
    {
      "name": "Object_0",
      "primitives": [
        {
          "attributes": {
            "POSITION": 0,
            "TEXCOORD_0": 1
          },
          "indices": 2,
          "material": 1,
          "mode": 1
        }
      ]
    },
    {
      "name": "Object_1",
      "primitives": [
        {
          "attributes": {
            "NORMAL": 4,
            "POSITION": 3,
            "TANGENT": 5,
            "TEXCOORD_0": 6
          },
          "indices": 7,
          "material": 0,
          "mode": 4
        }
      ]
    },
    {
      "name": "Object_2",
      "primitives": [
        {
          "attributes": {
            "NORMAL": 9,
            "POSITION": 8,
            "TANGENT": 10,
            "TEXCOORD_0": 11
          },
          "indices": 12,
          "material": 1,
          "mode": 4
        }
      ]
    }
  ],
  "nodes": [
    {
      "children": [
        1
      ],
      "matrix": [
        1.0,
        0.0,
        0.0,
        0.0,
        0.0,
        2.220446049250313e-16,
        -1.0,
        0.0,
        0.0,
        1.0,
        2.220446049250313e-16,
        0.0,
        0.0,
        0.0,
        0.0,
        1.0
      ],
      "name": "Sketchfab_model"
    },
    {
      "children": [
        2,
        3,
        4
      ],
      "name": "01_JawBone_18_lowpolly.obj.cleaner.materialmerger.gles"
    },
    {
      "mesh": 0,
      "name": "Object_2"
    },
    {
      "mesh": 1,
      "name": "Object_3"
    },
    {
      "mesh": 2,
      "name": "Object_4"
    }
  ],
  "samplers": [
    {
      "magFilter": 9729,
      "minFilter": 9987,
      "wrapS": 10497,
      "wrapT": 10497
    }
  ],
  "scene": 0,
  "scenes": [
    {
      "name": "Sketchfab_Scene",
      "nodes": [
        0
      ]
    }
  ],
  "textures": [
    {
      "sampler": 0,
      "source": 0
    },
    {
      "sampler": 0,
      "source": 1
    },
    {
      "sampler": 0,
      "source": 2
    },
    {
      "sampler": 0,
      "source": 3
    },
    {
      "sampler": 0,
      "source": 4
    },
    {
      "sampler": 0,
      "source": 5
    },
    {
      "sampler": 0,
      "source": 6
    },
    {
      "sampler": 0,
      "source": 7
    }
  ]
}
